<svg width="205" height="26" viewBox="0 0 205 26" fill="none" xmlns="http://www.w3.org/2000/svg">
<path d="M45.083 12.9594C46.8766 12.0443 47.893 10.4502 47.893 8.47232C47.893 5.28413 45.2026 3.07011 39.7021 3.07011H29V23.7343H40.2999C45.92 23.7343 48.9094 21.6384 48.9094 18.0664C48.9094 15.5572 47.4446 13.786 45.083 12.9594ZM38.9248 7.29151C40.8978 7.29151 41.9142 7.97048 41.9142 9.26937C41.9142 10.5978 40.8978 11.2768 38.9248 11.2768H34.8592V7.29151H38.9248ZM39.8216 19.5129H34.8592V15.321H39.8216C41.8544 15.321 42.9306 16 42.9306 17.417C42.9306 18.8339 41.8544 19.5129 39.8216 19.5129Z" fill="#FBDC7B"/>
<path d="M57.117 9.65314V7.73432H51.7061V23.7343H57.386V16.3838C57.386 13.5793 58.9704 12.428 61.2722 12.428C61.6907 12.428 62.0495 12.4576 62.5577 12.5166V7.46863C60.1662 7.46863 58.2828 8.20664 57.117 9.65314Z" fill="#FBDC7B"/>
<path d="M67.7415 5.9631C69.8341 5.9631 71.2092 4.66421 71.2092 2.89299C71.2092 1.21033 69.8341 0 67.7415 0C65.6489 0 64.2738 1.29889 64.2738 2.98155C64.2738 4.66421 65.6489 5.9631 67.7415 5.9631ZM64.9015 23.7343H70.5814V7.73432H64.9015V23.7343Z" fill="#FBDC7B"/>
<path d="M82.5533 24C86.2302 24 89.0403 22.3764 90.1464 19.6015L85.7519 17.3875C84.9747 18.893 83.8387 19.5424 82.5234 19.5424C80.5504 19.5424 78.9959 18.1845 78.9959 15.7048C78.9959 13.2841 80.5504 11.9262 82.5234 11.9262C83.8387 11.9262 84.9747 12.5756 85.7519 14.0812L90.1464 11.8672C89.0403 9.09225 86.2302 7.46863 82.5533 7.46863C77.1126 7.46863 73.2562 10.893 73.2562 15.7048C73.2562 20.5756 77.1126 24 82.5533 24Z" fill="#FBDC7B"/>
<path d="M104.124 23.7343H111L103.706 14.583L110.432 7.73432H103.706L97.9064 13.3137V1.83026H92.2266V23.7343H97.9064V19.8081L99.5805 18.1255L104.124 23.7343Z" fill="#FBDC7B"/>
<path d="M127.425 13.1122C129.516 12.4261 130.92 10.8153 130.92 8.33949C130.92 4.87926 128.202 3 123.722 3H115V23.8807H124.319C129.456 23.8807 132.025 21.8821 132.025 18.3622C132.025 15.4688 130.382 13.679 127.425 13.1122ZM123.662 4.3125C127.276 4.3125 129.367 5.71449 129.367 8.45881C129.367 11.233 127.276 12.6349 123.662 12.6349H116.523V4.3125H123.662ZM124.319 22.5682H116.523V13.9474H124.319C128.321 13.9474 130.502 15.2599 130.502 18.2429C130.502 21.2557 128.321 22.5682 124.319 22.5682Z" fill="#FBDC7B"/>
<path d="M149.138 8.30966V16.6023C149.138 20.3011 146.958 22.6577 143.433 22.6577C140.178 22.6577 138.296 20.8082 138.296 17.2884V8.30966H136.802V17.4077C136.802 21.7628 139.341 24 143.314 24C146.062 24 148.182 22.7173 149.198 20.5398V23.8807H150.632V8.30966H149.138Z" fill="#FBDC7B"/>
<path d="M164.071 21.8523C163.443 22.419 162.577 22.7173 161.651 22.7173C159.74 22.7173 158.754 21.6136 158.754 19.6151V9.59233H163.712V8.30966H158.754V4.90909H157.261V8.30966H154.393V9.59233H157.261V19.7642C157.261 22.3892 158.754 24 161.502 24C162.667 24 163.921 23.642 164.698 22.8963L164.071 21.8523Z" fill="#FBDC7B"/>
<path d="M175.563 21.8523C174.936 22.419 174.069 22.7173 173.144 22.7173C171.232 22.7173 170.246 21.6136 170.246 19.6151V9.59233H175.204V8.30966H170.246V4.90909H168.753V8.30966H165.886V9.59233H168.753V19.7642C168.753 22.3892 170.246 24 172.994 24C174.159 24 175.414 23.642 176.19 22.8963L175.563 21.8523Z" fill="#FBDC7B"/>
<path d="M193.003 16.0355C193.003 11.4119 189.836 8.19034 185.565 8.19034C181.294 8.19034 178.098 11.4716 178.098 16.0952C178.098 20.7188 181.414 24 186.133 24C188.492 24 190.643 23.1349 192.017 21.4645L191.151 20.4801C189.956 21.9418 188.134 22.6577 186.163 22.6577C182.429 22.6577 179.711 20.152 179.562 16.4531H192.973C192.973 16.304 193.003 16.1548 193.003 16.0355ZM185.565 9.50284C188.881 9.50284 191.33 11.919 191.539 15.2898H179.592C179.831 11.8892 182.25 9.50284 185.565 9.50284Z" fill="#FBDC7B"/>
<path d="M199.056 11.7102V8.30966H197.623V23.8807H199.116V15.767C199.116 11.919 201.177 9.62216 204.642 9.62216C204.761 9.62216 204.881 9.65199 205 9.65199V8.19034C202.073 8.19034 200.012 9.44318 199.056 11.7102Z" fill="#FBDC7B"/>
<path d="M0 3H17.7256C20.6377 3 23 5.23934 23 8C23 10.7607 20.6377 13 17.7256 13H5.27444C2.36226 13 0 10.7607 0 8V3Z" fill="#981B32"/>
<path d="M0 15H17.7256C20.6377 15 23 17.4633 23 20.5C23 23.5367 20.6377 26 17.7256 26H5.27444C2.36226 26 0 23.5367 0 20.5V15Z" fill="#FBDC7B"/>
</svg>
