<svg width="108" height="44" viewBox="0 0 108 44" fill="none" xmlns="http://www.w3.org/2000/svg">
<g clip-path="url(#clip0)">
<path d="M18.8279 40.6658C19.3145 40.7374 19.7104 40.8995 20.0062 41.1428C20.3019 41.3909 20.4498 41.72 20.4498 42.1398C20.4498 42.4642 20.3973 42.7408 20.2876 42.9698C20.1779 43.194 20.03 43.38 19.8392 43.5184C19.6484 43.6567 19.4242 43.7569 19.1618 43.8189C18.8995 43.8809 18.618 43.9095 18.3175 43.9095C17.8167 43.9095 17.3301 43.9047 16.8483 43.8904C16.3713 43.8761 15.8418 43.8714 15.2598 43.8714V43.5995C15.8323 43.5995 16.1185 43.4325 16.1185 43.0938V38.7816C16.1185 38.3618 15.818 38.1472 15.2217 38.1472V37.8657H17.831C18.1506 37.8657 18.4463 37.8896 18.7182 37.942C18.9901 37.9945 19.2286 38.0756 19.429 38.1853C19.6293 38.295 19.782 38.4429 19.8964 38.6194C20.0109 38.7959 20.0682 39.0153 20.0682 39.2729C20.0682 39.4733 20.0395 39.6402 19.9775 39.7833C19.9155 39.9264 19.8297 40.0505 19.7199 40.1554C19.6102 40.2603 19.4767 40.351 19.3193 40.4225C19.1666 40.4941 18.9997 40.5609 18.8184 40.6229V40.6658H18.8279ZM17.6449 38.2235C17.2252 38.2235 17.0153 38.3332 17.0153 38.5574V40.3033C17.0153 40.4702 17.1011 40.5561 17.2776 40.5561C17.6926 40.5561 18.0218 40.537 18.2746 40.4941C18.5226 40.4512 18.7182 40.3844 18.8518 40.289C18.9853 40.1936 19.076 40.0743 19.1189 39.9264C19.1618 39.7786 19.1809 39.5973 19.1809 39.3874C19.1809 38.6099 18.7898 38.2187 18.0027 38.2187H17.6449V38.2235ZM18.0599 43.5565C18.265 43.5565 18.4511 43.5327 18.6276 43.4897C18.7993 43.4468 18.9519 43.3705 19.0807 43.2655C19.2095 43.1606 19.3097 43.027 19.3813 42.8601C19.4528 42.6931 19.491 42.4928 19.491 42.2495C19.491 41.9681 19.448 41.7391 19.3622 41.5626C19.2763 41.3861 19.1475 41.2525 18.9853 41.1571C18.8184 41.0617 18.6228 40.995 18.3891 40.9616C18.1553 40.9282 17.893 40.9139 17.6068 40.9139H17.2824C17.1107 40.9139 17.02 41.0283 17.02 41.2573V43.2131C17.02 43.4468 17.2347 43.5661 17.664 43.5661H18.0599V43.5565Z" fill="#7E5000"/>
<path d="M26.8133 43.8666V43.5947C26.8992 43.5852 26.9851 43.5709 27.0805 43.5565C27.1759 43.547 27.257 43.5279 27.3333 43.5136C27.4096 43.4945 27.4716 43.4707 27.5241 43.4468C27.5766 43.4182 27.6004 43.3896 27.6004 43.3514C27.5957 43.3276 27.5909 43.2942 27.5861 43.2465C27.5813 43.2036 27.567 43.1463 27.5384 43.0795L27.133 41.9681C27.0662 41.8107 26.8849 41.7343 26.5796 41.7343H25.2297C25.0007 41.7343 24.8624 41.8107 24.8147 41.9681L24.5094 42.903C24.4855 42.9555 24.4712 43.0366 24.4712 43.1368C24.4712 43.4134 24.7383 43.5518 25.2678 43.5518V43.8666H23.231V43.5518C23.4075 43.5422 23.5553 43.4802 23.6794 43.3705C23.8034 43.2608 23.9083 43.1034 23.9894 42.8983L26.1598 37.7322L26.4317 37.8419L28.5735 43.2131C28.6594 43.3419 28.7262 43.4182 28.7739 43.4468C28.7882 43.4611 28.8359 43.4755 28.9218 43.4945C29.0076 43.5136 29.1316 43.547 29.2891 43.5899V43.8618H26.8133V43.8666ZM26.0263 39.0106L25.2297 40.9091C25.1629 41.0522 25.1295 41.1572 25.1295 41.2144C25.1295 41.305 25.2392 41.348 25.4634 41.348H26.6035C26.7847 41.348 26.8754 41.3098 26.8754 41.2382C26.8754 41.2096 26.842 41.1095 26.7752 40.9377L26.0263 39.0106Z" fill="#7E5000"/>
<path d="M36.1672 43.8665V43.5946C36.5107 43.5946 36.6824 43.5469 36.6824 43.4515C36.6824 43.3751 36.6061 43.2273 36.4486 43.0078L34.822 40.909L34.4166 41.281C34.3498 41.343 34.2925 41.4098 34.2401 41.4909C34.1876 41.5672 34.1542 41.6626 34.1351 41.7724V42.9744C34.1351 43.3894 34.4356 43.5993 35.0414 43.5993V43.8712H32.4179V43.5993C32.9712 43.5993 33.2479 43.3894 33.2479 42.9744V38.8053C33.2479 38.3665 32.9473 38.1423 32.3511 38.1423V37.8704H34.927V38.1423C34.3975 38.1423 34.1303 38.3617 34.1303 38.8053V41.0091L36.2388 39.0057C36.3771 38.8769 36.4677 38.7767 36.5154 38.7004C36.5584 38.624 36.5822 38.5191 36.5822 38.3855C36.5822 38.2234 36.3723 38.1423 35.9573 38.1423V37.8704H38.2995V38.1423C38.1182 38.1613 37.9703 38.1852 37.8511 38.2186C37.7318 38.252 37.6221 38.2997 37.5219 38.3617C37.4218 38.4237 37.312 38.5096 37.1976 38.6145C37.0831 38.7194 36.9352 38.8626 36.7539 39.0343L35.4803 40.2745L37.541 42.9649C37.6269 43.0555 37.7032 43.1414 37.7748 43.2177C37.8463 43.294 37.9226 43.3608 38.0037 43.4181C38.0848 43.4705 38.1754 43.5135 38.2756 43.5469C38.3758 43.5755 38.495 43.5898 38.6429 43.5898V43.8617H36.1672V43.8665Z" fill="#7E5000"/>
<path d="M41.6483 43.8665V43.5946C42.2017 43.5946 42.4783 43.399 42.4783 43.0078V38.9055C42.4783 38.3998 42.1778 38.1423 41.5815 38.1423V37.8704H46.3374L46.409 39.5638L46.1275 39.6019C46.075 39.2776 45.9939 39.0247 45.8842 38.8435C45.7745 38.6622 45.6457 38.5286 45.4931 38.4428C45.3404 38.3569 45.1639 38.3044 44.9636 38.2901C44.7632 38.2758 44.5486 38.2663 44.3101 38.2663H44.0573C43.5993 38.2663 43.3704 38.3998 43.3704 38.6717V40.2888C43.3704 40.4701 43.4419 40.5607 43.585 40.5607H43.8903C44.043 40.5607 44.1813 40.5512 44.3101 40.5369C44.4389 40.5226 44.5534 40.4844 44.6535 40.4176C44.7537 40.3556 44.8348 40.2602 44.8968 40.1267C44.9588 39.9979 45.0018 39.8214 45.0256 39.5972H45.3595V41.9393H45.0256C45.0018 41.7151 44.9636 41.5386 44.9159 41.4098C44.8682 41.281 44.7966 41.1809 44.706 41.1093C44.6154 41.0378 44.5057 40.9948 44.3721 40.9757C44.2385 40.9567 44.0763 40.9423 43.8855 40.9423H43.7901C43.5135 40.9423 43.3751 41.0425 43.3751 41.2429V42.9697C43.3751 43.3131 43.6136 43.4848 44.1002 43.4848H44.3816C44.7632 43.4848 45.0685 43.4562 45.3023 43.399C45.536 43.3417 45.722 43.2511 45.8652 43.1271C46.0083 43.0031 46.1275 42.8504 46.2134 42.6596C46.2992 42.4736 46.3899 42.2541 46.4805 42.0013L46.7238 42.0729L46.4805 43.8665H41.6483Z" fill="#7E5000"/>
<path d="M54.0224 43.8666V43.5947C54.6187 43.5947 54.9192 43.3848 54.9192 42.9698V41.0808C54.8095 40.9902 54.5806 40.9472 54.2323 40.9472H52.6057C52.4865 40.9472 52.372 40.9568 52.2623 40.9806C52.1525 40.9997 52.0524 41.0379 51.957 41.0856V42.9745C51.957 43.3896 52.2336 43.5994 52.787 43.5994V43.8713H50.1348V43.5994C50.7501 43.5994 51.0554 43.3896 51.0554 42.9745V38.9438C51.0554 38.4143 50.7501 38.1471 50.1348 38.1471V37.8752H52.787V38.1471C52.2336 38.1471 51.957 38.4143 51.957 38.9485V40.4988C52.1573 40.5656 52.372 40.599 52.6057 40.599H54.2323C54.571 40.599 54.8 40.5656 54.9192 40.4988V38.9485C54.9192 38.4143 54.6187 38.1471 54.0224 38.1471V37.8752H56.6365V38.1471C56.0879 38.1471 55.8113 38.4143 55.8113 38.9438V42.9745C55.8113 43.3896 56.0879 43.5994 56.6365 43.5994V43.8713H54.0224V43.8666Z" fill="#7E5000"/>
<path d="M63.1144 44C62.685 44 62.2891 43.9189 61.9314 43.7615C61.5688 43.5993 61.2588 43.3799 60.9964 43.1032C60.734 42.8218 60.5289 42.4926 60.381 42.1158C60.2332 41.7389 60.1616 41.3382 60.1616 40.9089C60.1616 40.5082 60.2332 40.1218 60.3715 39.745C60.5098 39.3682 60.7102 39.0342 60.9678 38.7385C61.2254 38.4475 61.5402 38.209 61.9027 38.0325C62.27 37.856 62.6707 37.7654 63.1191 37.7654C63.558 37.7654 63.9634 37.8417 64.3355 37.9944C64.7076 38.147 65.0272 38.3617 65.2943 38.6383C65.5615 38.9102 65.7713 39.2346 65.924 39.6114C66.0719 39.9835 66.1482 40.3937 66.1482 40.8326C66.1482 41.219 66.0766 41.6006 65.9335 41.9822C65.7904 42.3638 65.5853 42.7025 65.3229 42.9983C65.0606 43.2988 64.741 43.5373 64.3689 43.7233C63.9873 43.9094 63.5723 44 63.1144 44ZM63.1859 43.647C63.5246 43.647 63.8108 43.5754 64.0541 43.4371C64.2974 43.294 64.4929 43.1032 64.6503 42.8551C64.8078 42.6071 64.9222 42.3161 64.9986 41.9822C65.0749 41.6483 65.1131 41.2905 65.1131 40.9041C65.1131 40.5416 65.0749 40.1934 64.9986 39.8547C64.9222 39.516 64.803 39.2203 64.6408 38.9579C64.4786 38.6956 64.264 38.4857 64.0016 38.3283C63.7392 38.1708 63.4196 38.0898 63.0476 38.0898C62.7041 38.0898 62.4131 38.1661 62.1746 38.314C61.9361 38.4666 61.7453 38.6669 61.5974 38.9198C61.4496 39.1726 61.3446 39.4636 61.2826 39.7975C61.2206 40.1314 61.1872 40.4748 61.1872 40.8374C61.1872 41.2333 61.2254 41.6054 61.3065 41.9488C61.3828 42.2923 61.5068 42.588 61.669 42.8408C61.8312 43.0937 62.0411 43.294 62.2939 43.4371C62.5419 43.5754 62.8425 43.647 63.1859 43.647Z" fill="#7E5000"/>
<path d="M74.8202 38.9389C74.8202 38.4094 74.5101 38.1423 73.89 38.1423V37.8704H75.9889V38.1423C75.488 38.1423 75.24 38.4094 75.24 38.9389V41.6913C75.24 42.0347 75.2114 42.3495 75.1493 42.6358C75.0873 42.922 74.9681 43.1605 74.782 43.3656C74.6008 43.5659 74.3384 43.7234 73.9997 43.8378C73.6611 43.9476 73.2127 44.0048 72.6498 44.0048C72.292 44.0048 71.9819 43.9571 71.7148 43.8617C71.4477 43.7663 71.2187 43.628 71.0375 43.4562C70.8514 43.2797 70.7131 43.0746 70.6225 42.8313C70.527 42.5881 70.4841 42.3257 70.4841 42.0443V38.8101C70.4841 38.3712 70.1979 38.147 69.6255 38.147V37.8751H72.2395V38.147C71.6671 38.147 71.3809 38.3665 71.3809 38.8101V41.8105C71.3809 42.0156 71.3905 42.2255 71.4143 42.4402C71.4334 42.6548 71.5002 42.8456 71.6099 43.0221C71.7196 43.1939 71.8865 43.337 72.1107 43.4419C72.3349 43.5516 72.6593 43.6041 73.0743 43.6041C73.4607 43.6041 73.7708 43.5469 73.9997 43.4276C74.2335 43.3084 74.41 43.1652 74.5292 42.9888C74.6485 42.8123 74.7296 42.6214 74.7677 42.4068C74.8059 42.1969 74.825 41.9966 74.825 41.8105V38.9389H74.8202Z" fill="#7E5000"/>
<path d="M82.7436 39.6974C82.6243 39.2109 82.4192 38.8197 82.1378 38.5239C81.8563 38.233 81.5033 38.0851 81.0883 38.0851C80.7449 38.0851 80.4682 38.1757 80.2631 38.357C80.058 38.5383 79.953 38.7672 79.953 39.0439C79.953 39.2586 80.0246 39.4494 80.1724 39.6068C80.3203 39.769 80.5398 39.9121 80.8355 40.0361C81.2028 40.1935 81.5367 40.3223 81.842 40.4272C82.1425 40.5322 82.4001 40.6562 82.6148 40.7945C82.8294 40.9329 82.9964 41.1094 83.1109 41.3193C83.2301 41.5292 83.2874 41.8154 83.2874 42.1779C83.2874 42.4021 83.254 42.6215 83.1824 42.8362C83.1109 43.0556 83.0059 43.2464 82.8628 43.4181C82.7197 43.5899 82.5289 43.7282 82.2999 43.8331C82.0662 43.9381 81.7895 43.9906 81.4652 43.9906C81.2553 43.9906 81.074 43.9762 80.9166 43.9476C80.7639 43.919 80.6352 43.8808 80.5254 43.8379C80.4205 43.795 80.3394 43.752 80.2774 43.7091C80.2154 43.6662 80.1724 43.6376 80.1486 43.6185C80.0341 43.7043 79.9196 43.7807 79.8051 43.8427C79.6907 43.9047 79.5762 43.9572 79.4617 43.9858C79.3949 43.5278 79.3472 43.1224 79.3138 42.7694C79.2804 42.4164 79.2661 42.1063 79.2661 41.844H79.5666C79.5666 42.1111 79.6191 42.3544 79.7288 42.5738C79.8385 42.7932 79.9769 42.9841 80.1438 43.1367C80.3108 43.2941 80.5016 43.4181 80.7162 43.504C80.9261 43.5899 81.1312 43.6328 81.3316 43.6328C81.4604 43.6328 81.5987 43.6137 81.7514 43.5708C81.904 43.5278 82.0519 43.4611 82.1855 43.3704C82.319 43.2798 82.4335 43.1653 82.5289 43.027C82.6243 42.8886 82.6672 42.7217 82.6672 42.5309C82.6672 42.2924 82.6005 42.0777 82.4717 41.8965C82.3429 41.7152 82.133 41.5721 81.8515 41.4719C81.5176 41.3527 81.2028 41.2382 80.8975 41.138C80.5922 41.0378 80.3251 40.9138 80.0914 40.7707C79.8576 40.6276 79.6716 40.4511 79.5332 40.2364C79.3949 40.0218 79.3234 39.7403 79.3234 39.3921C79.3234 39.1393 79.3711 38.9103 79.4617 38.7052C79.5523 38.5001 79.6716 38.3236 79.829 38.1757C79.9816 38.0279 80.1629 37.9134 80.368 37.8323C80.5731 37.7512 80.7878 37.7083 81.012 37.7083C81.2696 37.7083 81.4938 37.756 81.675 37.8466C81.8563 37.942 82.028 38.0231 82.1855 38.0946C82.3715 37.942 82.5671 37.837 82.7722 37.7798C82.8581 38.0565 82.9153 38.3522 82.9535 38.6623C82.9916 38.9723 83.0059 39.311 83.0059 39.6688H82.7436V39.6974Z" fill="#7E5000"/>
<path d="M86.8842 43.8665V43.5946C87.4375 43.5946 87.7142 43.399 87.7142 43.0078V38.9055C87.7142 38.3998 87.4137 38.1423 86.8174 38.1423V37.8704H91.5732L91.6448 39.5638L91.3634 39.6019C91.3061 39.2776 91.225 39.0247 91.1201 38.8435C91.0104 38.6622 90.8816 38.5286 90.7289 38.4428C90.5763 38.3569 90.3998 38.3044 90.1994 38.2901C89.9991 38.2758 89.7844 38.2663 89.5459 38.2663H89.2931C88.8352 38.2663 88.6062 38.3998 88.6062 38.6717V40.2888C88.6062 40.4701 88.6777 40.5607 88.8209 40.5607H89.1309C89.2788 40.5607 89.4219 40.5512 89.5507 40.5369C89.6795 40.5226 89.794 40.4844 89.8941 40.4176C89.9943 40.3556 90.0754 40.2602 90.1374 40.1267C90.1994 39.9979 90.2424 39.8214 90.2662 39.5972H90.6001V41.9393H90.2662C90.2424 41.7151 90.2042 41.5386 90.1565 41.4098C90.1088 41.281 90.0372 41.1809 89.9466 41.1093C89.856 41.0378 89.7463 40.9948 89.6127 40.9757C89.4791 40.9567 89.317 40.9423 89.1261 40.9423H89.0164C88.7398 40.9423 88.6014 41.0425 88.6014 41.2429V42.9697C88.6014 43.3131 88.8447 43.4848 89.3265 43.4848H89.6079C89.9896 43.4848 90.2948 43.4562 90.5286 43.399C90.7623 43.3417 90.9484 43.2511 91.0915 43.1271C91.2346 43.0031 91.3538 42.8504 91.4397 42.6596C91.5255 42.4736 91.6162 42.2541 91.7068 42.0013L91.9501 42.0729L91.7068 43.8665H86.8842Z" fill="#7E5000"/>
<path d="M49.2666 8.97262H49.944V3.45354C49.944 3.40584 49.9678 3.36291 50.006 3.33429L53.5073 0.710698C53.5359 0.691617 53.5645 0.682077 53.5979 0.682077C53.6313 0.682077 53.6599 0.691617 53.6885 0.710698L57.1898 3.33429C57.228 3.36291 57.2519 3.40584 57.2519 3.45354V8.97262H57.9292V3.45354C57.9292 3.19118 57.8052 2.94791 57.6001 2.79049L54.0988 0.162129C53.803 -0.0572983 53.3976 -0.0572983 53.1066 0.162129L49.6053 2.79049C49.3954 2.94791 49.2761 3.19118 49.2761 3.45354V8.97262H49.2666Z" fill="#7E5000"/>
<path d="M51.7518 8.9727H52.4292V6.6067L52.5914 6.40158L52.7536 6.6067V8.9727H53.4309V6.43974C53.4309 6.39681 53.4166 6.35388 53.388 6.32049L52.7393 5.50002C52.6629 5.40462 52.5151 5.40462 52.4387 5.50002L51.79 6.32049C51.7614 6.35388 51.7471 6.39681 51.7471 6.43974L51.7518 8.9727Z" fill="#7E5000"/>
<path d="M53.7553 8.9727H54.4326V6.6067L54.5948 6.40158L54.757 6.6067V8.9727H55.4344V6.43974C55.4344 6.39681 55.4201 6.35388 55.3914 6.32049L54.7427 5.50002C54.6664 5.40462 54.5185 5.40462 54.4422 5.50002L53.7934 6.32049C53.7648 6.35388 53.7505 6.39681 53.7505 6.43974L53.7553 8.9727Z" fill="#7E5000"/>
<path d="M52.7533 8.9727H53.4307V6.6067L53.5929 6.40158L53.755 6.6067V8.9727H54.4324V6.43974C54.4324 6.39681 54.4181 6.35388 54.3895 6.32049L53.7407 5.50002C53.6644 5.40462 53.5165 5.40462 53.4402 5.50002L52.7915 6.32049C52.7628 6.35388 52.7485 6.39681 52.7485 6.43974L52.7533 8.9727Z" fill="#7E5000"/>
<path d="M7.94233 32.3893C6.79272 32.3893 5.73374 32.1746 4.76062 31.7453C3.78751 31.316 2.95273 30.7245 2.24675 29.9708C1.54076 29.2171 0.992194 28.3346 0.596271 27.3233C0.200347 26.3121 0 25.2292 0 24.0796C0 23.0111 0.186036 21.9712 0.558109 20.9599C0.930182 19.9487 1.46444 19.0519 2.16089 18.2648C2.85733 17.4777 3.69688 16.8481 4.67476 16.371C5.65265 15.894 6.74501 15.6555 7.94233 15.6555C9.12533 15.6555 10.2129 15.8606 11.2099 16.2756C12.2069 16.6906 13.0655 17.2631 13.7858 18.0024C14.5061 18.737 15.069 19.61 15.4744 20.6117C15.8799 21.6182 16.0802 22.7106 16.0802 23.8888C16.0802 24.9239 15.8847 25.9543 15.4983 26.9751C15.1119 27.9959 14.5633 28.907 13.8573 29.7084C13.1513 30.5098 12.2975 31.1586 11.2958 31.6499C10.2892 32.1412 9.17303 32.3893 7.94233 32.3893ZM8.1379 31.44C9.04423 31.44 9.82177 31.2492 10.4705 30.8723C11.1193 30.4907 11.6535 29.9708 12.0733 29.3077C12.4931 28.6447 12.8079 27.8671 13.0082 26.9656C13.2086 26.0688 13.3135 25.1004 13.3135 24.0701C13.3135 23.1017 13.2134 22.162 13.0082 21.2557C12.8079 20.3494 12.4883 19.548 12.0494 18.842C11.6106 18.1408 11.0429 17.5731 10.3369 17.1438C9.63096 16.7145 8.7771 16.4998 7.77537 16.4998C6.84996 16.4998 6.07242 16.7002 5.43322 17.1056C4.79402 17.5111 4.27407 18.0501 3.87814 18.7323C3.48222 19.4096 3.19601 20.1967 3.02905 21.084C2.85733 21.9712 2.77624 22.9014 2.77624 23.8697C2.77624 24.9383 2.88118 25.9305 3.09107 26.8511C3.30095 27.7717 3.62533 28.5731 4.06418 29.2505C4.50304 29.9279 5.06115 30.4621 5.73851 30.8485C6.4111 31.2444 7.21249 31.44 8.1379 31.44Z" fill="#7E5000"/>
<path d="M25.8448 32.022V31.2922C27.271 31.2922 27.9818 30.8534 27.9818 29.9804V18.4986C27.9818 17.2679 27.1804 16.6478 25.5776 16.6478V15.918H32.6232V16.6478C31.1349 16.6478 30.3907 17.2632 30.3907 18.4986V29.9804C30.3907 30.6625 30.9155 31.0012 31.9697 31.0012H33.0859C33.83 31.0012 34.4788 30.9488 35.0273 30.8438C35.5759 30.7389 36.0482 30.591 36.4345 30.3954C37.1453 30.009 37.7845 28.8499 38.3521 26.9227L39.0057 27.0181L38.2758 32.022H25.8448Z" fill="#7E5000"/>
<path d="M56.6649 20.8265C56.3405 19.5147 55.7967 18.4652 55.0383 17.6829C54.2751 16.8959 53.3401 16.5047 52.2191 16.5047C51.2985 16.5047 50.5591 16.748 50.0105 17.2345C49.462 17.7211 49.1853 18.3364 49.1853 19.0806C49.1853 19.6626 49.3856 20.1682 49.7816 20.5975C50.1775 21.0268 50.7738 21.4132 51.5656 21.7519C52.553 22.1717 53.4498 22.5247 54.2608 22.8061C55.0717 23.0875 55.7634 23.4167 56.3358 23.7887C56.9082 24.1608 57.3566 24.6283 57.6714 25.1959C57.9863 25.7636 58.1437 26.5316 58.1437 27.5047C58.1437 28.1057 58.0483 28.6972 57.8622 29.2792C57.6762 29.8612 57.39 30.3859 56.9988 30.8438C56.6124 31.3065 56.102 31.6786 55.4819 31.96C54.857 32.2415 54.1081 32.3846 53.2352 32.3846C52.6675 32.3846 52.181 32.3417 51.766 32.2653C51.3509 32.1842 51.0027 32.0888 50.7213 31.9743C50.4399 31.8599 50.2157 31.7454 50.0535 31.6357C49.8913 31.5212 49.7768 31.4401 49.7148 31.3924C49.4047 31.6214 49.0994 31.8217 48.7941 31.9982C48.4841 32.1747 48.1788 32.3035 47.8687 32.3846C47.6922 31.1539 47.5587 30.0663 47.468 29.117C47.3774 28.1678 47.3345 27.3377 47.3345 26.627H48.1359C48.1359 27.3377 48.2837 27.9913 48.5747 28.5828C48.8657 29.1743 49.2378 29.6799 49.6909 30.0997C50.1441 30.5194 50.6545 30.8486 51.2222 31.0823C51.7898 31.3161 52.3384 31.4353 52.8726 31.4353C53.2113 31.4353 53.5882 31.3781 54.0032 31.2636C54.4182 31.1491 54.8046 30.9726 55.1671 30.7293C55.5296 30.4861 55.8397 30.1808 56.0925 29.8087C56.3405 29.4366 56.4693 28.993 56.4693 28.473C56.4693 27.8243 56.2976 27.2614 55.9494 26.7749C55.6012 26.2883 55.0478 25.9115 54.2846 25.6348C53.3926 25.3104 52.5387 25.0147 51.723 24.738C50.9073 24.4613 50.1823 24.137 49.5621 23.7554C48.9372 23.3737 48.4411 22.8967 48.0691 22.3243C47.697 21.7519 47.511 20.9934 47.511 20.0585C47.511 19.3811 47.635 18.7658 47.8735 18.2172C48.1168 17.6686 48.4459 17.1964 48.8562 16.7957C49.2712 16.3998 49.7529 16.0945 50.3015 15.875C50.8501 15.6556 51.4273 15.5459 52.0283 15.5459C52.7248 15.5459 53.321 15.6699 53.8124 15.9227C54.3085 16.1756 54.7616 16.395 55.1862 16.5906C55.687 16.1851 56.2165 15.9037 56.7651 15.7415C56.9941 16.4856 57.1515 17.2775 57.2516 18.1075C57.347 18.9423 57.3995 19.8438 57.3995 20.8169H56.6649V20.8265Z" fill="#7E5000"/>
<path d="M67.7889 32.022V31.2922C69.2772 31.2922 70.0213 30.7627 70.0213 29.7085V18.6894C70.0213 17.3252 69.22 16.6478 67.6172 16.6478V15.918H80.3917L80.5873 20.4592L79.8336 20.5546C79.6857 19.6816 79.471 18.9995 79.1801 18.5129C78.8891 18.0264 78.5361 17.6686 78.1211 17.4301C77.7061 17.1916 77.2338 17.058 76.6996 17.0151C76.1653 16.9769 75.5834 16.9531 74.9489 16.9531H74.2668C73.0361 16.9531 72.4207 17.3156 72.4207 18.0455V22.3911C72.4207 22.8776 72.6163 23.1209 73.0027 23.1209H73.8279C74.2334 23.1209 74.6102 23.1018 74.9585 23.0589C75.3067 23.0207 75.612 22.911 75.8839 22.7441C76.151 22.5723 76.3704 22.3148 76.5374 21.9665C76.7091 21.6183 76.8236 21.1461 76.8904 20.545H77.7872V26.8369H76.8904C76.8236 26.2358 76.7282 25.7636 76.5994 25.4154C76.4706 25.0671 76.2846 24.8 76.0413 24.614C75.798 24.4279 75.4975 24.3087 75.1445 24.2514C74.7867 24.1942 74.3527 24.1656 73.8327 24.1656H73.5417C72.7976 24.1656 72.4255 24.4327 72.4255 24.967V29.6036C72.4255 30.529 73.0743 30.9869 74.367 30.9869H75.1207C76.1415 30.9869 76.9619 30.9106 77.5868 30.758C78.2117 30.6053 78.7174 30.362 79.1037 30.0281C79.4901 29.6942 79.805 29.2792 80.0387 28.7783C80.2724 28.2775 80.5109 27.686 80.7542 27.0038L81.4077 27.1994L80.7542 32.0077H67.7889V32.022Z" fill="#7E5000"/>
<path d="M104.319 32.2892L93.5813 18.6131V28.4015C93.5813 30.3286 94.416 31.2922 96.0808 31.2922V32.022H90.2517V31.2922C91.6112 31.2922 92.2933 30.3286 92.2933 28.3967V17.6686C92.2933 16.9865 91.4919 16.6478 89.8892 16.6478V15.918H94.3302L103.832 28.039V19.3286C103.832 17.5446 103.007 16.6526 101.357 16.6526V15.9227H107.186V16.6526C105.697 16.6526 104.949 17.5446 104.949 19.3286V32.1222L104.319 32.2892Z" fill="#7E5000"/>
</g>
<defs>
<clipPath id="clip0">
<rect width="107.186" height="44" fill="white"/>
</clipPath>
</defs>
</svg>
