<svg width="21" height="19" viewBox="0 0 21 19" fill="none" xmlns="http://www.w3.org/2000/svg">
<rect x="0.5" y="0.5" width="12" height="15" rx="0.5" fill="white" stroke="#7E5000"/>
<path d="M12.5 4C12.5 3.72386 12.7239 3.5 13 3.5H16.7898C16.9771 3.5 17.1488 3.60473 17.2344 3.77133L19.8059 8.77132C19.977 9.10408 19.7354 9.5 19.3612 9.5H12.5V4Z" fill="white" stroke="#7E5000"/>
<path d="M12.5 10C12.5 9.72386 12.7239 9.5 13 9.5H20C20.2761 9.5 20.5 9.72386 20.5 10V15C20.5 15.2761 20.2761 15.5 20 15.5H12.5V10Z" fill="white" stroke="#7E5000"/>
<circle cx="5.5" cy="16.5" r="2" fill="white" stroke="#7E5000"/>
<circle cx="16.5" cy="16.5" r="2" fill="white" stroke="#7E5000"/>
</svg>
