<svg width="14" height="14" viewBox="0 0 14 14" fill="none" xmlns="http://www.w3.org/2000/svg">
<path d="M13.3721 0.471828L13.3552 0.456459C13.033 0.162118 12.6153 0 12.1791 0C11.69 0 11.2205 0.207022 10.8908 0.567936L4.65683 7.39287C4.60001 7.45507 4.55691 7.52847 4.53026 7.60836L3.79724 9.80587C3.71249 10.0599 3.75503 10.3409 3.91101 10.5574C4.06823 10.7756 4.32152 10.9059 4.58861 10.9059H4.58865C4.70418 10.9059 4.8171 10.8822 4.9242 10.8353L7.04659 9.90683C7.12376 9.87308 7.19298 9.82352 7.24976 9.76132L13.4838 2.93643C14.1325 2.22628 14.0824 1.12074 13.3721 0.471828ZM5.20169 9.39993L5.63183 8.11045L5.6681 8.07072L6.48335 8.81534L6.44707 8.85507L5.20169 9.39993ZM12.5949 2.12451L7.29526 7.92654L6.48002 7.18192L11.7797 1.37985C11.8833 1.26637 12.0252 1.20385 12.1791 1.20385C12.3141 1.20385 12.4435 1.25409 12.5436 1.3455L12.5604 1.36087C12.7804 1.56187 12.7959 1.90445 12.5949 2.12451Z" fill="#7E5000"/>
<path d="M12.1626 5.55342C11.8302 5.55342 11.5607 5.82292 11.5607 6.15534V11.2656C11.5607 12.1096 10.874 12.7963 10.0299 12.7963H2.73462C1.89052 12.7963 1.20385 12.1096 1.20385 11.2656V4.02954C1.20385 3.18549 1.89056 2.49877 2.73462 2.49877H8.01498C8.3474 2.49877 8.61691 2.22927 8.61691 1.89685C8.61691 1.56442 8.3474 1.29492 8.01498 1.29492H2.73462C1.22672 1.29492 0 2.52168 0 4.02954V11.2655C0 12.7734 1.22676 14.0001 2.73462 14.0001H10.0299C11.5377 14.0001 12.7645 12.7734 12.7645 11.2655V6.15534C12.7645 5.82292 12.495 5.55342 12.1626 5.55342Z" fill="#7E5000"/>
</svg>
