<?xml version="1.0" encoding="UTF-8" standalone="no"?>
<!DOCTYPE svg PUBLIC "-//W3C//DTD SVG 1.1//EN" "http://www.w3.org/Graphics/SVG/1.1/DTD/svg11.dtd">
<svg width="100%" height="100%" viewBox="0 0 19 19" version="1.1" xmlns="http://www.w3.org/2000/svg" xmlns:xlink="http://www.w3.org/1999/xlink" xml:space="preserve" xmlns:serif="http://www.serif.com/" style="fill-rule:evenodd;clip-rule:evenodd;stroke-linejoin:round;stroke-miterlimit:2;">
    <g transform="matrix(1,0,0,1,-2.5,-2.5)">
        <path d="M8.25,2.5C5.083,2.5 2.5,5.083 2.5,8.25L2.5,15.75C2.5,18.916 5.083,21.5 8.25,21.5L15.75,21.5C18.916,21.5 21.5,18.916 21.5,15.75L21.5,8.25C21.5,5.083 18.916,2.5 15.75,2.5L8.25,2.5ZM8.25,4L15.75,4C18.106,4 20,5.894 20,8.25L20,15.75C20,18.106 18.106,20 15.75,20L8.25,20C5.894,20 4,18.106 4,15.75L4,8.25C4,5.894 5.894,4 8.25,4ZM17,6C16.448,6 16,6.448 16,7C16,7.553 16.448,8 17,8C17.552,8 18,7.553 18,7C18,6.448 17.552,6 17,6ZM12,7C9.248,7 7,9.248 7,12C7,14.752 9.248,17 12,17C14.752,17 17,14.752 17,12C17,9.248 14.752,7 12,7ZM12,8.5C13.942,8.5 15.5,10.058 15.5,12C15.5,13.942 13.942,15.5 12,15.5C10.058,15.5 8.5,13.942 8.5,12C8.5,10.058 10.058,8.5 12,8.5Z" style="fill:rgb(126,80,0);fill-rule:nonzero;"/>
    </g>
</svg>
