<svg width="17" height="20" viewBox="0 0 17 20" fill="none" xmlns="http://www.w3.org/2000/svg">
<path fill-rule="evenodd" clip-rule="evenodd" d="M3.12677 8.27878C3.12677 5.42211 5.45879 3.10454 8.33658 3.10454C11.2144 3.10454 13.5475 5.421 13.5475 8.27878C13.5475 11.1366 11.2144 13.453 8.33658 13.453C5.45879 13.453 3.12566 11.1366 3.12566 8.27878H3.12677ZM0 8.27878C0 14.8958 6.43139 20 8.33658 20C10.2418 20 16.6732 15.0647 16.6732 8.27878C16.6732 3.707 12.9406 0 8.33658 0C3.73256 0 0 3.707 0 8.27878Z" fill="#7E5000"/>
<path fill-rule="evenodd" clip-rule="evenodd" d="M8.33673 5.17434C8.74589 5.17287 9.15132 5.25202 9.52989 5.40724C9.90846 5.56247 10.2527 5.79074 10.5431 6.07903C10.8334 6.36731 11.0642 6.70996 11.2221 7.08741C11.38 7.46486 11.462 7.86972 11.4635 8.27888C11.462 8.68803 11.38 9.09289 11.2221 9.47034C11.0642 9.8478 10.8334 10.1904 10.5431 10.4787C10.2527 10.767 9.90846 10.9953 9.52989 11.1505C9.15132 11.3057 8.74589 11.3849 8.33673 11.3834C7.92758 11.3849 7.52214 11.3057 7.14357 11.1505C6.765 10.9953 6.42072 10.767 6.13037 10.4787C5.84002 10.1904 5.6093 9.8478 5.45137 9.47034C5.29345 9.09289 5.21142 8.68803 5.20996 8.27888C5.21142 7.86972 5.29345 7.46486 5.45137 7.08741C5.6093 6.70996 5.84002 6.36731 6.13037 6.07903C6.42072 5.79074 6.765 5.56247 7.14357 5.40724C7.52214 5.25202 7.92758 5.17287 8.33673 5.17434Z" fill="#7E5000"/>
</svg>
