<svg width="16" height="16" viewBox="0 0 16 16" fill="none" xmlns="http://www.w3.org/2000/svg">
<path fill-rule="evenodd" clip-rule="evenodd" d="M11.5601 15.9902C10.2381 15.9902 8.60813 15.3552 6.69713 13.4442L2.54513 9.29224C-1.44487 5.30224 0.131132 2.53324 1.42513 1.23924L2.14313 0.522241C2.41101 0.252476 2.7587 0.0762417 3.13464 0.0196796C3.51058 -0.0368824 3.89474 0.0292407 4.23013 0.208241C5.37813 0.816241 6.53713 2.75424 6.66613 2.97424C6.92613 3.43224 7.00413 3.90824 6.88913 4.32424C6.79813 4.65024 6.59813 4.91724 6.30713 5.09924C6.00513 5.35224 5.64713 5.66824 5.57313 5.75624C5.24013 6.25024 5.27313 6.57424 5.72113 7.02424L8.96513 10.2672C9.41313 10.7162 9.73913 10.7502 10.2551 10.3992C10.3231 10.3392 10.6371 9.98424 10.8901 9.68224C11.0721 9.39224 11.3391 9.19024 11.6641 9.10024C12.0791 8.98424 12.5571 9.06224 13.0071 9.32024C13.2341 9.45124 15.1731 10.6112 15.7801 11.7582C15.9589 12.0939 16.0248 12.4783 15.9681 12.8544C15.9114 13.2304 15.735 13.5782 15.4651 13.8462L14.7491 14.5622C14.0751 15.2372 12.9991 15.9892 11.5611 15.9892" fill="#7E5000"/>
</svg>
