<svg width="21" height="19" viewBox="0 0 21 19" fill="none" xmlns="http://www.w3.org/2000/svg">
<rect x="2.5" y="4.5" width="16" height="14" fill="white" stroke="#E7D8C3"/>
<path d="M2.16385 0.848398C2.22987 0.640909 2.42257 0.5 2.64031 0.5H18.3597C18.5774 0.5 18.7701 0.64091 18.8362 0.848398L20.1089 4.8484C20.2115 5.17087 19.9708 5.5 19.6324 5.5H1.36758C1.02918 5.5 0.788514 5.17087 0.891119 4.8484L2.16385 0.848398Z" fill="white" stroke="#E7D8C3"/>
<path d="M1.5 5.5H7.5V6.5C7.5 8.15685 6.15685 9.5 4.5 9.5C2.84315 9.5 1.5 8.15685 1.5 6.5V5.5Z" fill="white" stroke="#E7D8C3"/>
<path d="M7.5 5.5H13.5V6.5C13.5 8.15685 12.1569 9.5 10.5 9.5C8.84315 9.5 7.5 8.15685 7.5 6.5V5.5Z" fill="white" stroke="#E7D8C3"/>
<path d="M13.5 18.5L7.5 18.5L7.5 14.5C7.5 12.8431 8.84315 11.5 10.5 11.5C12.1569 11.5 13.5 12.8431 13.5 14.5L13.5 18.5Z" fill="white" stroke="#E7D8C3"/>
<path d="M13.5 5.5H19.5V6.5C19.5 8.15685 18.1569 9.5 16.5 9.5C14.8431 9.5 13.5 8.15685 13.5 6.5V5.5Z" fill="white" stroke="#E7D8C3"/>
<line x1="0.5" y1="18.5" x2="20.5" y2="18.5" stroke="#E7D8C3" stroke-linecap="round"/>
</svg>
